<svg width="20" height="20" viewBox="0 0 20 20" fill="none" xmlns="http://www.w3.org/2000/svg">
<path d="M15.0001 1.33989C16.5084 2.21075 17.7631 3.46042 18.6399 4.96519C19.5168 6.46997 19.9855 8.17766 19.9995 9.91923C20.0136 11.6608 19.5726 13.3758 18.7201 14.8946C17.8677 16.4133 16.6334 17.6831 15.1394 18.5782C13.6454 19.4733 11.9435 19.9627 10.2022 19.998C8.46095 20.0332 6.74067 19.6131 5.21168 18.7791C3.68268 17.9452 2.39799 16.7264 1.48479 15.2434C0.571584 13.7604 0.0615314 12.0646 0.00512218 10.3239L0.00012207 9.99989L0.00512218 9.67589C0.0611253 7.94888 0.56367 6.26585 1.46376 4.79089C2.36385 3.31592 3.63078 2.09934 5.14101 1.25977C6.65125 0.420205 8.35327 -0.0137108 10.0811 0.000330246C11.809 0.0143713 13.5037 0.47589 15.0001 1.33989ZM8.51112 7.13989C8.3016 7.01517 8.05373 6.9713 7.81413 7.01652C7.57453 7.06175 7.35971 7.19296 7.21007 7.38547C7.06043 7.57799 6.98629 7.81854 7.00158 8.0619C7.01688 8.30525 7.12056 8.53463 7.29312 8.70689L8.58512 9.99989L7.29312 11.2929L7.21012 11.3869C7.05471 11.5879 6.98163 11.8405 7.00572 12.0934C7.02982 12.3463 7.14928 12.5806 7.33984 12.7486C7.53041 12.9167 7.77779 13.0059 8.03174 12.9981C8.28569 12.9904 8.52716 12.8862 8.70712 12.7069L10.0001 11.4149L11.2931 12.7069L11.3871 12.7899C11.5881 12.9453 11.8407 13.0184 12.0936 12.9943C12.3466 12.9702 12.5808 12.8507 12.7489 12.6602C12.9169 12.4696 13.0061 12.2222 12.9984 11.9683C12.9906 11.7143 12.8865 11.4728 12.7071 11.2929L11.4151 9.99989L12.7071 8.70689L12.7901 8.61289C12.9455 8.4119 13.0186 8.15929 12.9945 7.90637C12.9704 7.65344 12.851 7.41917 12.6604 7.25114C12.4698 7.08311 12.2225 6.99391 11.9685 7.00166C11.7146 7.00942 11.4731 7.11354 11.2931 7.29289L10.0001 8.58489L8.70712 7.29289L8.61312 7.20989L8.51112 7.13989Z" fill="#FF0000"/>
</svg>
