<svg width="17" height="17" viewBox="0 0 17 17" fill="none" xmlns="http://www.w3.org/2000/svg">
<g clip-path="url(#clip0_39_1312)">
<path d="M4.95834 6.84738C4.95834 6.34635 5.15738 5.86584 5.51166 5.51156C5.86593 5.15728 6.34644 4.95825 6.84747 4.95825H12.9859C13.234 4.95825 13.4796 5.00712 13.7088 5.10205C13.938 5.19699 14.1463 5.33614 14.3217 5.51156C14.4971 5.68699 14.6363 5.89524 14.7312 6.12444C14.8261 6.35364 14.875 6.59929 14.875 6.84738V12.9858C14.875 13.2339 14.8261 13.4795 14.7312 13.7087C14.6363 13.9379 14.4971 14.1462 14.3217 14.3216C14.1463 14.497 13.938 14.6362 13.7088 14.7311C13.4796 14.8261 13.234 14.8749 12.9859 14.8749H6.84747C6.59939 14.8749 6.35373 14.8261 6.12453 14.7311C5.89533 14.6362 5.68708 14.497 5.51166 14.3216C5.33623 14.1462 5.19708 13.9379 5.10214 13.7087C5.00721 13.4795 4.95834 13.2339 4.95834 12.9858V6.84738Z" stroke="#8E8E8E" stroke-width="1.5" stroke-linecap="round" stroke-linejoin="round"/>
<path d="M2.84183 11.8554C2.62462 11.7315 2.44394 11.5526 2.31807 11.3365C2.19221 11.1205 2.1256 10.875 2.125 10.625V3.54167C2.125 2.7625 2.7625 2.125 3.54167 2.125H10.625C11.1562 2.125 11.4452 2.39771 11.6875 2.83333" stroke="#8E8E8E" stroke-width="1.5" stroke-linecap="round" stroke-linejoin="round"/>
</g>
<defs>
<clipPath id="clip0_39_1312">
<rect width="17" height="17" fill="white"/>
</clipPath>
</defs>
</svg>
