<svg width="18" height="18" viewBox="0 0 18 18" fill="none" xmlns="http://www.w3.org/2000/svg">
<path d="M1.66669 4.41659C1.66669 3.93036 1.85984 3.46404 2.20366 3.12022C2.54747 2.77641 3.01379 2.58325 3.50002 2.58325H14.5C14.9863 2.58325 15.4526 2.77641 15.7964 3.12022C16.1402 3.46404 16.3334 3.93036 16.3334 4.41659V15.4166C16.3334 15.9028 16.1402 16.3691 15.7964 16.7129C15.4526 17.0568 14.9863 17.2499 14.5 17.2499H3.50002C3.01379 17.2499 2.54747 17.0568 2.20366 16.7129C1.85984 16.3691 1.66669 15.9028 1.66669 15.4166V4.41659Z" stroke="#2C3E50" stroke-width="1.5" stroke-linecap="round" stroke-linejoin="round"/>
<path d="M12.6667 0.75V4.41667" stroke="#2C3E50" stroke-width="1.5" stroke-linecap="round" stroke-linejoin="round"/>
<path d="M5.33331 0.75V4.41667" stroke="#2C3E50" stroke-width="1.5" stroke-linecap="round" stroke-linejoin="round"/>
<path d="M1.66669 8.08325H16.3334" stroke="#2C3E50" stroke-width="1.5" stroke-linecap="round" stroke-linejoin="round"/>
<path d="M5.33331 11.75H7.16665V13.5833H5.33331V11.75Z" stroke="#2C3E50" stroke-width="1.5" stroke-linecap="round" stroke-linejoin="round"/>
</svg>
