<svg width="15" height="15" viewBox="0 0 15 15" fill="none" xmlns="http://www.w3.org/2000/svg">
<path d="M5.10975 7.209C5.4525 6.924 5.79825 6.924 6.14925 7.21725L6.23025 7.29075L9.96975 11.0303L10.0402 11.0925C10.1846 11.2044 10.3647 11.2597 10.5469 11.2482C10.7292 11.2367 10.9009 11.1592 11.0301 11.0301C11.1592 10.9009 11.2367 10.7292 11.2482 10.5469C11.2597 10.3647 11.2044 10.1846 11.0925 10.0402L11.0303 9.96975L10.0612 9L10.2802 8.78025L10.3597 8.709C10.7025 8.424 11.0482 8.424 11.3993 8.71725L11.4802 8.79075L14.9858 12.297C14.9147 13.0112 14.59 13.6763 14.0706 14.1715C13.5511 14.6668 12.8713 14.9594 12.1545 14.9963L12 15H3C2.25593 15 1.53843 14.7234 0.986818 14.224C0.435206 13.7247 0.0888488 13.0381 0.015 12.2977L5.03025 7.28025L5.10975 7.209ZM12 0C12.7697 -6.02066e-07 13.5099 0.295826 14.0676 0.826293C14.6253 1.35676 14.9578 2.08128 14.9963 2.85L15 3V10.1888L12.5303 7.71975L12.4177 7.617C11.4757 6.79575 10.2803 6.79425 9.34575 7.60425L9.23025 7.70925L9 7.93875L7.28025 6.21975L7.16775 6.117C6.22575 5.29575 5.03025 5.29425 4.09575 6.10425L3.98025 6.20925L0 10.1888V3C-6.02066e-07 2.23032 0.295826 1.49008 0.826293 0.932391C1.35676 0.374703 2.08128 0.0422342 2.85 0.00375009L3 0H12ZM9.7575 3.75L9.66225 3.75525C9.47996 3.77693 9.31196 3.86472 9.19006 4.00197C9.06816 4.13923 9.00084 4.31643 9.00084 4.5C9.00084 4.68357 9.06816 4.86077 9.19006 4.99803C9.31196 5.13528 9.47996 5.22307 9.66225 5.24475L9.75 5.25L9.84525 5.24475C10.0275 5.22307 10.1955 5.13528 10.3174 4.99803C10.4393 4.86077 10.5067 4.68357 10.5067 4.5C10.5067 4.31643 10.4393 4.13923 10.3174 4.00197C10.1955 3.86472 10.0275 3.77693 9.84525 3.75525L9.7575 3.75Z" fill="#D9D9D9"/>
</svg>
