<svg width="91" height="73" viewBox="0 0 91 73" fill="none" xmlns="http://www.w3.org/2000/svg">
<g clip-path="url(#clip0_67_483)">
<path d="M90.3848 64.2523C89.741 62.1746 86.7691 59.1383 87.1303 55.0815C87.4914 51.0263 90.6765 41.7618 89.8499 37.8073C89.0232 33.8528 84.8779 22.2265 74.1603 20.4682C63.4472 18.7106 55.7528 21.6281 51.6437 21.4409C47.5376 21.253 46.7906 18.1101 42.2516 18.1508C36.3925 18.2057 35.3838 20.6675 31.2414 21.988C28.204 22.9571 18.6908 22.9453 18.6908 22.9453C18.6908 22.9453 15.9691 19.3503 15.1395 20.6675C14.3099 21.9854 13.2445 25.3416 13.2445 25.3416C13.2445 25.3416 8.15269 27.1387 7.68109 28.0997C7.20912 29.0608 6.56125 30.6191 6.56125 30.6191C6.56125 30.6191 1.16875 32.0541 0.577344 33.3721C-0.0136997 34.6893 2.94658 37.804 3.89305 38.8856C4.83952 39.9668 15.8496 40.2035 17.5945 41.5049C19.3387 42.8082 24.2234 43.7861 26.9513 44.2602C32.071 45.1524 34.3211 55.4472 35.6223 66.8336C34.0826 68.1536 31.3601 69.3224 31.2128 72.9578H47.9031C47.9031 72.9578 48.1251 70.5308 48.408 67.5253C48.6868 64.5198 53.7355 53.1433 53.7355 53.1433C53.7355 53.1433 57.4036 56.0199 59.8912 56.1434C59.6575 58.419 60.7063 60.8402 60.7063 60.8402C60.7063 60.8402 62.8548 63.4521 64.9432 65.5194C61.1201 67.1153 61.2314 69.9303 61.2314 69.9303L75.3995 70.0417C75.3995 70.0417 76.8194 67.0479 76.8194 64.6488C78.7181 67.4077 82.3864 68.4856 82.3864 68.4856L80.1047 72.9578H88.7622C88.7676 72.9549 91.0291 66.3283 90.3848 64.2523ZM10.8089 31.2452C10.186 31.2452 9.68441 30.7341 9.68441 30.1065C9.68441 29.4804 10.186 28.967 10.8089 28.967C11.4282 28.967 11.9346 29.4774 11.9346 30.1065C11.9346 30.7399 11.4253 31.2452 10.8089 31.2452Z" fill="black"/>
<path d="M53.0378 43.2761C64.8429 43.2761 74.4128 33.5884 74.4128 21.6381C74.4128 9.68769 64.8429 0 53.0378 0C41.2328 0 31.6628 9.68769 31.6628 21.6381C31.6628 33.5884 41.2328 43.2761 53.0378 43.2761Z" fill="white"/>
<path d="M57.2753 30.635C58.061 30.635 58.8146 30.951 59.3701 31.5134C59.9257 32.0758 60.2378 32.8386 60.2378 33.634C60.2378 32.8386 60.55 32.0758 61.1055 31.5134C61.6611 30.951 62.4146 30.635 63.2004 30.635C62.4146 30.635 61.6611 30.3191 61.1055 29.7567C60.55 29.1943 60.2378 28.4315 60.2378 27.6361C60.2378 28.4315 59.9257 29.1943 59.3701 29.7567C58.8146 30.3191 58.061 30.635 57.2753 30.635ZM57.2753 12.6413C58.061 12.6413 58.8146 12.9572 59.3701 13.5197C59.9257 14.082 60.2378 14.8448 60.2378 15.6402C60.2378 14.8448 60.55 14.082 61.1055 13.5197C61.6611 12.9572 62.4146 12.6413 63.2004 12.6413C62.4146 12.6413 61.6611 12.3254 61.1055 11.7629C60.55 11.2005 60.2378 10.4377 60.2378 9.64233C60.2378 10.4377 59.9257 11.2005 59.3701 11.7629C58.8146 12.3254 58.061 12.6413 57.2753 12.6413ZM46.9065 30.635C46.9065 28.2489 47.8429 25.9605 49.5097 24.2733C51.1764 22.586 53.4369 21.6382 55.794 21.6382C53.4369 21.6382 51.1764 20.6903 49.5097 19.0031C47.8429 17.3158 46.9065 15.0274 46.9065 12.6413C46.9065 15.0274 45.9702 17.3158 44.3035 19.0031C42.6367 20.6903 40.3761 21.6382 38.019 21.6382C40.3761 21.6382 42.6367 22.586 44.3035 24.2733C45.9702 25.9605 46.9065 28.2489 46.9065 30.635Z" fill="black"/>
</g>
<defs>
<clipPath id="clip0_67_483">
<rect width="90" height="73" fill="white" transform="translate(0.5)"/>
</clipPath>
</defs>
</svg>
