<svg width="23" height="22" viewBox="0 0 23 22" fill="none" xmlns="http://www.w3.org/2000/svg">
<g clip-path="url(#clip0_39_1318)">
<path d="M4.16666 4.58341C4.16666 4.3403 4.26323 4.10714 4.43514 3.93523C4.60705 3.76333 4.84021 3.66675 5.08332 3.66675H8.74999C8.99311 3.66675 9.22626 3.76333 9.39817 3.93523C9.57008 4.10714 9.66666 4.3403 9.66666 4.58341V8.25008C9.66666 8.4932 9.57008 8.72635 9.39817 8.89826C9.22626 9.07017 8.99311 9.16675 8.74999 9.16675H5.08332C4.84021 9.16675 4.60705 9.07017 4.43514 8.89826C4.26323 8.72635 4.16666 8.4932 4.16666 8.25008V4.58341Z" stroke="black" stroke-width="1.5" stroke-linecap="round" stroke-linejoin="round"/>
<path d="M6.91666 15.5833V15.5933" stroke="black" stroke-width="1.5" stroke-linecap="round" stroke-linejoin="round"/>
<path d="M13.3333 4.58341C13.3333 4.3403 13.4299 4.10714 13.6018 3.93523C13.7737 3.76333 14.0069 3.66675 14.25 3.66675H17.9167C18.1598 3.66675 18.393 3.76333 18.5649 3.93523C18.7368 4.10714 18.8333 4.3403 18.8333 4.58341V8.25008C18.8333 8.4932 18.7368 8.72635 18.5649 8.89826C18.393 9.07017 18.1598 9.16675 17.9167 9.16675H14.25C14.0069 9.16675 13.7737 9.07017 13.6018 8.89826C13.4299 8.72635 13.3333 8.4932 13.3333 8.25008V4.58341Z" stroke="black" stroke-width="1.5" stroke-linecap="round" stroke-linejoin="round"/>
<path d="M6.91666 6.41675V6.42675" stroke="black" stroke-width="1.5" stroke-linecap="round" stroke-linejoin="round"/>
<path d="M4.16666 13.7499C4.16666 13.5068 4.26323 13.2736 4.43514 13.1017C4.60705 12.9298 4.84021 12.8333 5.08332 12.8333H8.74999C8.99311 12.8333 9.22626 12.9298 9.39817 13.1017C9.57008 13.2736 9.66666 13.5068 9.66666 13.7499V17.4166C9.66666 17.6597 9.57008 17.8929 9.39817 18.0648C9.22626 18.2367 8.99311 18.3333 8.74999 18.3333H5.08332C4.84021 18.3333 4.60705 18.2367 4.43514 18.0648C4.26323 17.8929 4.16666 17.6597 4.16666 17.4166V13.7499Z" stroke="black" stroke-width="1.5" stroke-linecap="round" stroke-linejoin="round"/>
<path d="M16.0833 6.41675V6.42675" stroke="black" stroke-width="1.5" stroke-linecap="round" stroke-linejoin="round"/>
<path d="M13.3333 12.8333H16.0833" stroke="black" stroke-width="1.5" stroke-linecap="round" stroke-linejoin="round"/>
<path d="M18.8333 12.8333V12.8433" stroke="black" stroke-width="1.5" stroke-linecap="round" stroke-linejoin="round"/>
<path d="M13.3333 12.8333V15.5833" stroke="black" stroke-width="1.5" stroke-linecap="round" stroke-linejoin="round"/>
<path d="M13.3333 18.3333H16.0833" stroke="black" stroke-width="1.5" stroke-linecap="round" stroke-linejoin="round"/>
<path d="M16.0833 15.5833H18.8333" stroke="black" stroke-width="1.5" stroke-linecap="round" stroke-linejoin="round"/>
<path d="M18.8333 15.5833V18.3333" stroke="black" stroke-width="1.5" stroke-linecap="round" stroke-linejoin="round"/>
</g>
<defs>
<clipPath id="clip0_39_1318">
<rect width="22" height="22" fill="white" transform="translate(0.5)"/>
</clipPath>
</defs>
</svg>
